<svg xmlns="http://www.w3.org/2000/svg" width="785" height="158" viewBox="0 0 785 158" fill="none"><path d="M311.177 106.715V96.899C311.177 61.824 285.918 36.103 249.456 36.103C212.969 36.103 187.273 61.825 187.273 96.899C187.273 131.948 212.969 157.67 249.456 157.67C276.797 157.67 297.841 143.409 306.501 121.439H276.796C270.963 128.917 261.84 132.437 249.455 132.437C232.162 132.437 220.213 122.595 216.487 107.178V106.715H311.177ZM217.181 84.025C221.626 69.995 233.087 61.336 249.455 61.336C265.591 61.336 277.284 69.995 281.704 84.025V84.488H217.181V84.025Z" fill="#EFEFEF"></path><path d="M387.801 36.103C370.508 36.103 356.709 43.58 349.232 55.272H348.769V0H320.94V95.948C320.94 133.361 346.199 157.669 382.661 157.669C419.123 157.669 444.845 131.947 444.845 96.898C444.847 55.965 415.399 36.103 387.801 36.103ZM382.662 131.717C362.311 131.717 348.769 117.225 348.769 96.899C348.769 76.548 362.311 62.055 382.662 62.055C403.014 62.055 416.787 76.547 416.787 96.899C416.787 117.224 403.014 131.717 382.662 131.717Z" fill="#EFEFEF"></path><path d="M484.881 130.098V129.61L551.279 62.287V39.135H450.756V63.674H513.634V64.162L447.236 131.485V154.637H553.847V130.097H484.881V130.098Z" fill="#EFEFEF"></path><path d="M620.581 39.135V154.638H648.383V39.135H620.581Z" fill="#EFEFEF"></path><path d="M722.67 36.103C686.181 36.103 660.46 61.825 660.46 96.899C660.46 131.948 686.181 157.67 722.67 157.67C759.132 157.67 784.853 131.948 784.853 96.899C784.853 61.824 759.133 36.103 722.67 36.103ZM722.67 131.717C702.318 131.717 688.52 117.225 688.52 96.899C688.52 76.548 702.318 62.055 722.67 62.055C742.995 62.055 756.563 76.547 756.563 96.899C756.563 117.224 742.995 131.717 722.67 131.717Z" fill="#EFEFEF"></path><path d="M148.933 39.135V105.07C148.933 124.008 139.118 131.717 125.55 131.717C112.24 131.717 102.168 123.777 102.168 105.07V39.135H74.339V105.07C74.339 123.777 64.522 131.717 51.213 131.717C38.056 131.717 28.42 124.471 27.856 106.741C23.949 109.619 19.145 111.315 13.954 111.315C8.737 111.315 3.933 109.619 0.027 106.716C0.643 141.791 21.457 157.671 48.412 157.671C65.936 157.671 79.966 150.425 88.138 137.345H88.626C97.029 150.424 111.058 157.671 128.352 157.671C155.718 157.671 176.763 141.303 176.763 105.072V39.135H148.933ZM27.829 69.096V39.135H0V69.148C3.906 66.244 8.736 64.523 13.953 64.523C19.144 64.522 23.948 66.218 27.829 69.096Z" fill="#EFEFEF"></path><path d="M587.214 155.292C594.671 155.292 600.716 149.247 600.716 141.79C600.716 134.333 594.671 128.288 587.214 128.288C579.757 128.288 573.712 134.333 573.712 141.79C573.712 149.247 579.757 155.292 587.214 155.292Z" fill="#EFEFEF"></path><path d="M27.0842 87.905C27.0842 95.151 21.2002 101.036 13.9542 101.036C6.70724 101.036 0.823242 95.152 0.823242 87.905C0.823242 80.658 6.70724 74.8 13.9542 74.8C21.1992 74.801 27.0842 80.659 27.0842 87.905Z" fill="#FC9F00"></path></svg>