<svg xmlns="http://www.w3.org/2000/svg" width="13" height="12" viewBox="0 0 13 12" fill="none"><path d="M2.90797 11.207H0.357643V3.74147H2.90797V11.207ZM1.63332 2.74607C0.927896 2.74607 0.357643 2.18815 0.357643 1.50132C0.357643 0.814495 0.928917 0.257568 1.63332 0.257568C2.33619 0.257568 2.90797 0.815491 2.90797 1.50132C2.90797 2.18815 2.33619 2.74607 1.63332 2.74607ZM12.0892 11.207H9.63727V7.57376C9.63727 6.70727 9.62043 5.59292 8.36261 5.59292C7.08592 5.59292 6.88954 6.53656 6.88954 7.51105V11.207H4.43817V3.736H6.79161V4.75678H6.82477C7.15223 4.16949 7.95252 3.55035 9.14607 3.55035C11.6301 3.55035 12.0892 5.0977 12.0892 7.10941V11.207Z" fill="#273340"></path></svg>