<svg xmlns="http://www.w3.org/2000/svg" width="100" height="100" viewBox="0 0 100 100" fill="none"><path fill-rule="evenodd" clip-rule="evenodd" d="M29.0935 12.0723C35.1007 7.10117 42.6537 4.38135 50.451 4.38135C56.1468 4.38135 61.7122 5.83265 66.6399 8.55257C67.3652 8.9529 67.6286 9.86538 67.2283 10.5907C66.8279 11.3159 65.9155 11.5794 65.1902 11.179C60.7037 8.70265 55.6367 7.38135 50.451 7.38135C43.352 7.38135 36.4753 9.85761 31.0061 14.3835C25.5369 18.9095 21.8177 25.2014 20.4896 32.1752L20.4858 32.1945C20.3819 32.7032 20.3925 33.2286 20.5168 33.7325C20.641 34.2365 20.8758 34.7064 21.2041 35.1084C21.5325 35.5105 21.9462 35.8345 22.4151 36.057C22.884 36.2793 23.3965 36.3946 23.9157 36.3945H76.9209C77.4836 36.3945 78.0132 36.2817 78.487 36.057C78.9559 35.8346 79.3695 35.5106 79.6979 35.1084C80.0262 34.7064 80.261 34.2365 80.3853 33.7325C80.5095 33.2284 80.5202 32.703 80.4164 32.1945L80.4126 32.1752C79.5519 27.6562 77.6873 23.4234 74.9929 19.772C74.501 19.1054 74.6427 18.1662 75.3093 17.6744C75.9759 17.1825 76.915 17.3241 77.4069 17.9907C80.3643 21.9988 82.4118 26.6447 83.3579 31.6048C83.5484 32.5462 83.5279 33.5182 83.298 34.4506C83.0673 35.3866 82.6313 36.2594 82.0215 37.0061C81.4118 37.7526 80.6437 38.3544 79.7727 38.7675C78.8615 39.1997 77.8872 39.3945 76.9209 39.3945H23.9163C23.9162 39.3945 23.9164 39.3945 23.9163 39.3945C22.9525 39.3947 22.0005 39.1806 21.1295 38.7675C20.2585 38.3544 19.4903 37.7527 18.8805 37.0061C18.2708 36.2594 17.8348 35.3866 17.604 34.4506C17.3741 33.518 17.3537 32.546 17.5443 31.6048C19.0046 23.9488 23.0887 17.0414 29.0935 12.0723Z" fill="#273340"></path><path fill-rule="evenodd" clip-rule="evenodd" d="M50.001 36.5166C50.8294 36.5166 51.501 37.1882 51.501 38.0166V81.8266C51.501 82.655 50.8294 83.3266 50.001 83.3266C49.1725 83.3266 48.501 82.655 48.501 81.8266V38.0166C48.501 37.1882 49.1725 36.5166 50.001 36.5166Z" fill="#273340"></path><path fill-rule="evenodd" clip-rule="evenodd" d="M61.3408 36.5166C62.1692 36.5166 62.8408 37.1882 62.8408 38.0166V50.7766H73.0008C73.8292 50.7766 74.5008 51.4482 74.5008 52.2766V65.8266C74.5008 66.655 73.8292 67.3266 73.0008 67.3266C72.1724 67.3266 71.5008 66.655 71.5008 65.8266V53.7766H61.3408C60.5124 53.7766 59.8408 53.105 59.8408 52.2766V38.0166C59.8408 37.1882 60.5124 36.5166 61.3408 36.5166Z" fill="#273340"></path><path fill-rule="evenodd" clip-rule="evenodd" d="M38.661 36.5166C39.4894 36.5166 40.161 37.1882 40.161 38.0166V52.2766C40.161 53.105 39.4894 53.7766 38.661 53.7766H28.501V65.8266C28.501 66.655 27.8294 67.3266 27.001 67.3266C26.1725 67.3266 25.501 66.655 25.501 65.8266V52.2766C25.501 51.4482 26.1725 50.7766 27.001 50.7766H37.161V38.0166C37.161 37.1882 37.8326 36.5166 38.661 36.5166Z" fill="#273340"></path><path fill-rule="evenodd" clip-rule="evenodd" d="M47.0582 80.9921C48.4633 80.4101 50.0095 80.2578 51.5013 80.5545C52.993 80.8512 54.3632 81.5837 55.4386 82.6591C56.5141 83.7346 57.2465 85.1048 57.5432 86.5966C57.8399 88.0882 57.6877 89.6344 57.1057 91.0396C56.5236 92.4449 55.5379 93.6458 54.2733 94.4908C53.0087 95.3358 51.5219 95.7868 50.001 95.7868C48.9911 95.7868 47.9912 95.5879 47.0582 95.2014C46.1252 94.815 45.2775 94.2486 44.5634 93.5344C43.8493 92.8203 43.2829 91.9726 42.8964 91.0396C42.5099 90.1066 42.311 89.1066 42.311 88.0967C42.311 86.5759 42.7619 85.0891 43.6069 83.8244C44.452 82.5597 45.6531 81.5742 47.0582 80.9921ZM50.916 83.4968C50.0063 83.3159 49.0633 83.4088 48.2062 83.7638C47.3492 84.1188 46.6166 84.7199 46.1013 85.4911C45.586 86.2623 45.311 87.169 45.311 88.0967C45.311 88.7126 45.4324 89.3226 45.668 89.8916C45.9038 90.4606 46.2492 90.9776 46.6847 91.4131C47.1202 91.8486 47.6372 92.1941 48.2062 92.4298C48.7753 92.6655 49.3851 92.7868 50.001 92.7868C50.9286 92.7868 51.8353 92.5117 52.6066 91.9964C53.3779 91.481 53.9791 90.7485 54.334 89.8916C54.689 89.0347 54.7818 88.0917 54.6008 87.1818C54.4199 86.2721 53.9732 85.4363 53.3173 84.7804C52.6613 84.1245 51.8257 83.6778 50.916 83.4968Z" fill="#273340"></path><path fill-rule="evenodd" clip-rule="evenodd" d="M70.0582 64.9919C71.4633 64.4099 73.0095 64.2575 74.5013 64.5542C75.993 64.851 77.3632 65.5834 78.4386 66.6589C79.5141 67.7343 80.2465 69.1046 80.5432 70.5963C80.8399 72.088 80.6877 73.6342 80.1057 75.0394C79.5236 76.4446 78.5379 77.6456 77.2733 78.4905C76.0087 79.3355 74.5219 79.7865 73.001 79.7865C71.9911 79.7865 70.9912 79.5876 70.0582 79.2012C69.1252 78.8147 68.2775 78.2483 67.5634 77.5342C66.8493 76.8201 66.2829 75.9724 65.8964 75.0394C65.5099 74.1064 65.311 73.1063 65.311 72.0965C65.311 70.5756 65.7619 69.0888 66.6069 67.8241C67.452 66.5595 68.6531 65.5739 70.0582 64.9919ZM73.916 67.4966C73.0063 67.3156 72.0633 67.4085 71.2062 67.7635C70.3492 68.1185 69.6166 68.7197 69.1013 69.4909C68.586 70.2621 68.311 71.1688 68.311 72.0965C68.311 72.7124 68.4324 73.3223 68.668 73.8913C68.9038 74.4604 69.2492 74.9774 69.6847 75.4129C70.1202 75.8484 70.6372 76.1938 71.2062 76.4295C71.7753 76.6652 72.3851 76.7865 73.001 76.7865C73.9286 76.7865 74.8353 76.5115 75.6066 75.9961C76.3779 75.4807 76.9791 74.7483 77.334 73.8913C77.689 73.0344 77.7818 72.0914 77.6008 71.1816C77.4199 70.2718 76.9732 69.4361 76.3173 68.7802C75.6613 68.1242 74.8257 67.6776 73.916 67.4966Z" fill="#273340"></path><path fill-rule="evenodd" clip-rule="evenodd" d="M24.0582 64.9919C25.4633 64.4099 27.0095 64.2575 28.5013 64.5542C29.993 64.851 31.3632 65.5834 32.4386 66.6589C33.5141 67.7343 34.2465 69.1046 34.5432 70.5963C34.8399 72.088 34.6877 73.6342 34.1057 75.0394C33.5236 76.4446 32.5379 77.6456 31.2733 78.4905C30.0087 79.3355 28.5219 79.7865 27.001 79.7865C24.9615 79.7865 23.0055 78.9764 21.5634 77.5342C20.1212 76.092 19.311 74.1359 19.311 72.0965C19.311 70.5756 19.7619 69.0888 20.6069 67.8241C21.452 66.5595 22.6531 65.5739 24.0582 64.9919ZM27.001 76.7865C27.9286 76.7865 28.8353 76.5115 29.6066 75.9961C30.3779 75.4807 30.9791 74.7483 31.334 73.8913C31.689 73.0344 31.7818 72.0914 31.6008 71.1816C31.4199 70.2718 30.9732 69.4361 30.3173 68.7802C29.6613 68.1242 28.8257 67.6776 27.916 67.4966C27.0063 67.3156 26.0633 67.4085 25.2062 67.7635C24.3492 68.1185 23.6166 68.7197 23.1013 69.4909C22.586 70.2621 22.311 71.1688 22.311 72.0965C22.311 73.3404 22.8052 74.5334 23.6847 75.4129C24.5642 76.2924 25.7571 76.7865 27.001 76.7865Z" fill="#273340"></path><path d="M70.96 16.7134C72.3407 16.7134 73.46 15.5941 73.46 14.2134C73.46 12.8327 72.3407 11.7134 70.96 11.7134C69.5792 11.7134 68.46 12.8327 68.46 14.2134C68.46 15.5941 69.5792 16.7134 70.96 16.7134Z" fill="#44B0E7"></path></svg>