<svg xmlns="http://www.w3.org/2000/svg" width="100" height="100" viewBox="0 0 100 100" fill="none"><path fill-rule="evenodd" clip-rule="evenodd" d="M29.9381 12.5852C35.8751 8.61776 42.8553 6.5 49.996 6.5C57.1367 6.5 64.1169 8.61776 70.0539 12.5852C75.9909 16.5527 80.6179 22.1918 83.3497 28.7892C86.0815 35.3866 86.7954 42.646 85.4011 49.6492C84.0068 56.6524 80.5668 63.0847 75.5164 68.1327C74.9304 68.7183 73.9807 68.7181 73.3951 68.1322C72.8094 67.5463 72.8096 66.5965 73.3956 66.0109C78.0263 61.3824 81.1804 55.4846 82.4588 49.0634C83.7373 42.6422 83.0827 35.9861 80.5779 29.9369C78.0731 23.8877 73.8307 18.7173 68.3871 15.0796C62.9434 11.4418 56.5432 9.5 49.996 9.5C43.4488 9.5 37.0486 11.4418 31.6049 15.0796C26.1613 18.7173 21.9189 23.8877 19.4141 29.9369C16.9093 35.9861 16.2547 42.6422 17.5332 49.0634C18.8116 55.4846 21.9657 61.3824 26.5964 66.0109C27.1824 66.5965 27.1826 67.5463 26.597 68.1322C26.0113 68.7181 25.0616 68.7183 24.4756 68.1327C19.4252 63.0847 15.9853 56.6524 14.5909 49.6492C13.1966 42.646 13.9105 35.3866 16.6423 28.7892C19.3742 22.1918 24.0011 16.5527 29.9381 12.5852Z" fill="#273340"></path><path d="M65.9259 43.8418L50.9259 31.8418L49.9958 31.0918L49.0559 31.8418L34.0559 43.8418C33.9016 43.9646 33.7729 44.1166 33.6774 44.2891C33.5818 44.4616 33.5212 44.6512 33.4989 44.8472C33.4766 45.0431 33.4931 45.2415 33.5475 45.431C33.6019 45.6206 33.693 45.7975 33.8158 45.9518C33.9386 46.1061 34.0906 46.2348 34.263 46.3303C34.4355 46.4259 34.6252 46.4865 34.8212 46.5088C35.0171 46.5311 35.2155 46.5146 35.405 46.4602C35.5946 46.4058 35.7716 46.3146 35.9259 46.1918L48.4958 36.1918V65.3318C48.4958 65.7296 48.6539 66.1112 48.9352 66.3925C49.2165 66.6738 49.598 66.8318 49.9958 66.8318C50.3937 66.8318 50.7752 66.6738 51.0565 66.3925C51.3378 66.1112 51.4958 65.7296 51.4958 65.3318V36.1918L64.0559 46.1918C64.2102 46.3146 64.3871 46.4058 64.5766 46.4602C64.7662 46.5146 64.9646 46.5311 65.1605 46.5088C65.3564 46.4865 65.5461 46.4259 65.7186 46.3303C65.8911 46.2348 66.0431 46.1061 66.1659 45.9518C66.2887 45.7975 66.3798 45.6206 66.4342 45.431C66.4886 45.2415 66.5052 45.0431 66.4829 44.8472C66.4606 44.6512 66.3999 44.4616 66.3043 44.2891C66.2087 44.1166 66.0802 43.9646 65.9259 43.8418Z" fill="#273340"></path><path fill-rule="evenodd" clip-rule="evenodd" d="M50.396 78.5C51.2244 78.5 51.896 79.1716 51.896 80L51.896 92C51.896 92.8284 51.2244 93.5 50.396 93.5C49.5676 93.5 48.896 92.8284 48.896 92L48.896 80C48.896 79.1716 49.5676 78.5 50.396 78.5Z" fill="#273340"></path><path d="M49.896 75.1931C51.2767 75.1931 52.396 74.0738 52.396 72.6931C52.396 71.3124 51.2767 70.1931 49.896 70.1931C48.5153 70.1931 47.396 71.3124 47.396 72.6931C47.396 74.0738 48.5153 75.1931 49.896 75.1931Z" fill="#44B0E7"></path></svg>