<svg xmlns="http://www.w3.org/2000/svg" width="100" height="100" viewBox="0 0 100 100" fill="none"><path fill-rule="evenodd" clip-rule="evenodd" d="M49.9648 4.41048C49.9923 4.40972 50.0199 4.40972 50.0474 4.41048C68.3291 4.91394 82.6161 20.3479 82.6161 38.5599V67.7915C82.613 70.6936 81.458 73.4758 79.4048 75.5268C77.3517 77.5778 74.5683 78.73 71.6661 78.73H59.9161C59.0877 78.73 58.4161 78.0584 58.4161 77.23C58.4161 76.4016 59.0877 75.73 59.9161 75.73H71.6661C73.7731 75.73 75.7939 74.8935 77.2846 73.4044C78.7753 71.9153 79.6139 69.8953 79.6161 67.7883V38.5599C79.6161 21.9059 66.5648 7.88919 50.0061 7.41051C40.0969 7.69694 31.4535 12.8233 26.1003 20.4771C25.6255 21.156 24.6902 21.3214 24.0114 20.8466C23.3325 20.3718 23.1671 19.4366 23.6419 18.7577C29.5078 10.3709 39.0219 4.71183 49.9648 4.41048ZM19.8183 30.6928C20.6312 30.8529 21.1603 31.6415 21.0003 32.4544C20.6104 34.4341 20.4061 36.4764 20.4061 38.5599V52.3999C20.4061 53.2283 19.7346 53.8999 18.9061 53.8999H13.7062C12.2661 53.8999 10.885 53.3279 9.86659 52.3096C8.8483 51.2913 8.27612 49.9101 8.27612 48.47V39.96L8.27613 39.9561C8.27979 38.5185 8.85339 37.1409 9.87136 36.1255C10.8893 35.1102 12.2684 34.5399 13.7062 34.5399H17.6395C17.7444 33.6415 17.8839 32.7526 18.0568 31.8747C18.2168 31.0619 19.0055 30.5328 19.8183 30.6928ZM17.4211 37.5399H13.7062C13.0628 37.5399 12.4455 37.7951 11.99 38.2495C11.5349 38.7035 11.2782 39.3192 11.2761 39.9621V48.47C11.2761 49.1144 11.5322 49.7325 11.9879 50.1882C12.4436 50.6439 13.0616 50.8999 13.7062 50.8999H17.4061V38.5599C17.4061 38.2189 17.4111 37.8789 17.4211 37.5399Z" fill="#273340"></path><path fill-rule="evenodd" clip-rule="evenodd" d="M79.5962 36.0098C79.5962 35.1813 80.2678 34.5098 81.0962 34.5098H86.2963C87.7338 34.5098 89.1124 35.0809 90.1288 36.0973C91.1453 37.1138 91.7162 38.4924 91.7162 39.9298V48.4023C91.7162 49.0904 91.5977 49.7906 91.328 50.4643C91.0719 51.1041 90.6957 51.6896 90.2207 52.1882C89.7193 52.7145 89.1157 53.1355 88.4483 53.4242C87.7697 53.7178 87.0366 53.8699 86.2963 53.8699H81.0962C80.2678 53.8699 79.5962 53.1983 79.5962 52.3699C79.5962 51.5414 80.2678 50.8699 81.0962 50.8699H86.2963C86.6263 50.8699 86.9541 50.8019 87.2572 50.6708C87.5549 50.542 87.8249 50.3537 88.0485 50.119C88.2605 49.8964 88.4286 49.6348 88.5429 49.3493C88.6574 49.0634 88.7162 48.7459 88.7162 48.4023V39.9298C88.7162 39.2879 88.4612 38.6724 88.0075 38.2186C87.5536 37.7647 86.938 37.5098 86.2963 37.5098H81.0962C80.2678 37.5098 79.5962 36.8382 79.5962 36.0098Z" fill="#273340"></path><path fill-rule="evenodd" clip-rule="evenodd" d="M50.3948 69.709C51.7997 69.1251 53.3464 68.9711 54.8389 69.2664C56.3314 69.5617 57.7028 70.2931 58.7795 71.3681C59.8563 72.4431 60.5898 73.8133 60.8875 75.3053C61.1852 76.7973 61.0338 78.3441 60.4521 79.75C59.8704 81.1559 58.8848 82.3577 57.6199 83.2033C56.3549 84.0488 54.8676 84.5001 53.3462 84.5001C51.3088 84.5001 49.3548 83.6916 47.913 82.2521C46.4712 80.8127 45.6596 78.8599 45.6563 76.8225C45.6538 75.3011 46.1027 73.8131 46.9462 72.5469C47.7897 71.2807 48.9898 70.293 50.3948 69.709ZM54.2566 72.2093C53.3463 72.0292 52.403 72.1232 51.5462 72.4793C50.6894 72.8354 49.9574 73.4377 49.443 74.2101C48.9285 74.9823 48.6548 75.8898 48.6563 76.8177C48.6583 78.0602 49.1533 79.2512 50.0326 80.1291C50.9119 81.007 52.1036 81.5001 53.3462 81.5001C54.2742 81.5001 55.1813 81.2248 55.9527 80.7092C56.7241 80.1935 57.3252 79.4605 57.68 78.6031C58.0347 77.7457 58.1271 76.8024 57.9455 75.8923C57.7639 74.9823 57.3166 74.1467 56.6599 73.4911C56.0033 72.8355 55.1668 72.3894 54.2566 72.2093Z" fill="#273340"></path><path fill-rule="evenodd" clip-rule="evenodd" d="M61.2309 30.6258C61.2309 30.6252 61.2309 30.6246 61.2308 30.6241C61.1634 29.8216 60.4741 29.2154 59.6693 29.2513C58.8639 29.2872 58.2311 29.9532 58.2361 30.7591L58.2361 30.7581L58.236 30.7753C58.2358 30.7931 58.2354 30.8234 58.2342 30.8654C58.2319 30.9494 58.2267 31.0799 58.2152 31.2502C58.1921 31.5912 58.1439 32.0887 58.0434 32.6898C57.8411 33.899 57.4335 35.4892 56.6219 37.0619C55.8141 38.6272 54.6169 40.1562 52.8315 41.2989C51.0521 42.4377 48.5999 43.2498 45.1862 43.2498H28.0261C27.1977 43.2498 26.5261 43.9214 26.5261 44.7498V72.8998H28.0261C26.5261 72.8998 26.5261 72.9007 26.5261 72.9016L26.5261 72.904L26.5261 72.9101L26.5263 72.9281C26.5264 72.9426 26.5266 72.9623 26.5271 72.9869C26.5279 73.036 26.5296 73.1048 26.5327 73.192C26.539 73.3664 26.5514 73.6147 26.5755 73.9263C26.6238 74.5489 26.7195 75.4277 26.9095 76.4778C27.2882 78.5715 28.0483 81.3829 29.5828 84.2103C31.1216 87.0459 33.4465 89.9088 36.9442 92.0571C40.4456 94.2077 45.0376 95.5899 51.0261 95.5899C57.0147 95.5899 61.6066 94.2077 65.1081 92.0571C68.6058 89.9088 70.9306 87.0459 72.4695 84.2103C74.0039 81.3829 74.764 78.5715 75.1428 76.4778C75.3328 75.4277 75.4284 74.5489 75.4767 73.9263C75.5009 73.6147 75.5132 73.3664 75.5195 73.192C75.5227 73.1048 75.5243 73.036 75.5252 72.9869C75.5256 72.9623 75.5259 72.9426 75.526 72.9281L75.5261 72.9101L75.5261 72.904L75.5261 72.9016C75.5261 72.9007 75.5261 72.8998 74.0261 72.8998H75.5261V44.7498C75.5261 43.9214 74.8545 43.2498 74.0261 43.2498C68.1299 43.2498 65.0011 40.1699 63.2671 37.0255C62.3856 35.4268 61.8721 33.813 61.5801 32.5892C61.4349 31.9804 61.3464 31.4763 61.2947 31.13C61.2689 30.9571 61.2524 30.8242 61.2426 30.7379C61.2378 30.6949 61.2346 30.6635 61.2327 30.6447L61.231 30.627L61.2309 30.6258ZM72.5261 72.8998V72.8985V46.1915C66.2195 45.6914 62.6146 42.0549 60.6401 38.4741C60.3744 37.9924 60.1379 37.5117 59.9273 37.0395C59.7419 37.5 59.5301 37.9683 59.2878 38.4377C58.2894 40.3724 56.7648 42.3433 54.4486 43.8257C52.1265 45.3119 49.0974 46.2498 45.1862 46.2498H29.5261V72.8977V72.8998L29.5266 72.9343C29.5271 72.9654 29.5283 73.0156 29.5308 73.0835C29.5357 73.2196 29.5458 73.4266 29.5666 73.6944C29.6081 74.2305 29.6921 75.0073 29.8615 75.9437C30.2015 77.8232 30.8789 80.3092 32.2195 82.7794C33.5556 85.2413 35.5433 87.6759 38.5143 89.5008C41.4816 91.3233 45.5147 92.5899 51.0261 92.5899C56.5376 92.5899 60.5706 91.3233 63.5379 89.5008C66.509 87.6759 68.4966 85.2413 69.8328 82.7794C71.1733 80.3092 71.8507 77.8232 72.1907 75.9437C72.3601 75.0073 72.4441 74.2305 72.4857 73.6944C72.5065 73.4266 72.5166 73.2196 72.5215 73.0835C72.523 73.0414 72.524 73.0061 72.5247 72.9779C72.5252 72.9607 72.5254 72.9461 72.5257 72.9343L72.5261 72.9022L72.5261 72.8998Z" fill="#273340"></path><path d="M21.5081 28.0959C22.8888 28.0959 24.0081 26.9767 24.0081 25.5959C24.0081 24.2152 22.8888 23.0959 21.5081 23.0959C20.1273 23.0959 19.0081 24.2152 19.0081 25.5959C19.0081 26.9767 20.1273 28.0959 21.5081 28.0959Z" fill="#44B0E7"></path></svg>