<svg xmlns="http://www.w3.org/2000/svg" width="100" height="100" viewBox="0 0 100 100" fill="none"><path fill-rule="evenodd" clip-rule="evenodd" d="M34.3471 41.3407C34.6339 42.1179 34.2363 42.9805 33.4591 43.2673L23.3226 47.0077L52.4221 57.5961L39.6483 70.9526C39.1391 71.4792 38.4884 71.8469 37.7746 72.0114C37.0613 72.1758 36.3156 72.1302 35.6275 71.8798C35.6272 71.8797 35.6278 71.8799 35.6275 71.8798L9.4374 62.3597L9.4336 62.3584C8.84138 62.1413 8.31274 61.7799 7.89552 61.3068C7.47839 60.8338 7.18577 60.2641 7.04439 59.6493C6.90304 59.0346 6.91734 58.3942 7.08601 57.7864C7.25468 57.1787 7.57236 56.6226 8.0103 56.1686L17.4553 46.3838C17.5768 46.2556 17.7069 46.1366 17.8446 46.0276C18.0432 45.8025 18.3043 45.6437 18.5906 45.5687C18.6828 45.526 18.7769 45.4871 18.8727 45.452C18.8736 45.4517 18.8744 45.4514 18.8753 45.4511L32.4206 40.4528C33.1978 40.166 34.0603 40.5635 34.3471 41.3407ZM19.34 48.7509L10.1694 58.2514C10.0781 58.346 10.0119 58.4619 9.97676 58.5886C9.94161 58.7153 9.93862 58.8489 9.96809 58.977C9.99753 59.105 10.0585 59.2238 10.1455 59.3225C10.2321 59.4206 10.3417 59.4957 10.4645 59.541C10.465 59.5412 10.4655 59.5414 10.4661 59.5416L36.6524 69.0603C36.7957 69.1125 36.952 69.1224 37.1009 69.088C37.2487 69.054 37.3836 68.9781 37.4894 68.8694C37.4901 68.8687 37.4908 68.868 37.4914 68.8673L47.0777 58.8439L19.34 48.7509Z" fill="#273340"></path><path fill-rule="evenodd" clip-rule="evenodd" d="M65.6328 41.3307C65.9196 40.5535 66.7822 40.156 67.5594 40.4428L81.1164 45.4453C81.2617 45.4998 81.4032 45.563 81.5402 45.6345C81.7025 45.6985 81.8534 45.7906 81.9851 45.9072C82.177 46.0438 82.3563 46.1984 82.5205 46.3693C82.5213 46.3703 82.5222 46.3712 82.5231 46.3721L91.9897 56.1686C92.4276 56.6226 92.7453 57.1787 92.9139 57.7864C93.0826 58.3942 93.0969 59.0345 92.9556 59.6492C92.8142 60.2639 92.5217 60.8337 92.1044 61.3068C91.6872 61.7799 91.1586 62.1413 90.5663 62.3584L90.5625 62.3597L64.3734 71.8794C64.3731 71.8796 64.3736 71.8793 64.3734 71.8794C63.6852 72.1299 62.9387 72.1758 62.2253 72.0114C61.5116 71.8469 60.8608 71.4791 60.3517 70.9526L60.3484 70.9491L47.5112 57.5866L76.67 47.0023L66.5208 43.2573C65.7436 42.9705 65.3461 42.1079 65.6328 41.3307ZM80.6487 48.7496L52.869 58.8334L62.5085 68.8673C62.5089 68.8677 62.5093 68.8682 62.5097 68.8686C62.6157 68.9777 62.7508 69.0539 62.899 69.088C63.0479 69.1224 63.2034 69.1128 63.3467 69.0606L89.5339 59.5416C89.5344 59.5414 89.5348 59.5413 89.5353 59.5411C89.6582 59.4958 89.7678 59.4207 89.8544 59.3225C89.9414 59.2239 90.0024 59.1051 90.0319 58.9769C90.0613 58.8487 90.0583 58.7153 90.0232 58.5886C89.988 58.4619 89.9218 58.346 89.8305 58.2514L80.6487 48.7496Z" fill="#273340"></path><path fill-rule="evenodd" clip-rule="evenodd" d="M19.4497 63.5C20.2781 63.5 20.9497 64.1716 20.9497 65V79.9986C20.9512 80.7154 21.1727 81.4146 21.5844 82.0015C21.9963 82.5886 22.5787 83.0351 23.2527 83.2804L49.2527 92.7504C49.2526 92.7503 49.2529 92.7504 49.2527 92.7504C50.0257 93.0316 50.8735 93.0317 51.6464 92.7505L77.6464 83.2805C78.3205 83.0352 78.9032 82.5886 79.3151 82.0015C79.7266 81.4149 79.9481 80.7161 79.9497 79.9994C79.9497 79.9987 79.9497 79.9981 79.9497 79.9974L79.9497 65C79.9497 64.1716 80.6213 63.5 81.4497 63.5C82.2781 63.5 82.9497 64.1716 82.9497 65V80V80.0026C82.9474 81.3345 82.5361 82.6338 81.7711 83.7243C81.0061 84.8149 79.9245 85.6439 78.6728 86.0995L52.6731 95.5693C51.2372 96.0919 49.6627 96.0921 48.2267 95.5695L22.2267 86.0995C20.9751 85.6439 19.8935 84.8149 19.1285 83.7243C18.3635 82.6339 17.952 81.3346 17.9497 80.0026L17.9497 65C17.9497 64.1716 18.6213 63.5 19.4497 63.5Z" fill="#273340"></path><path fill-rule="evenodd" clip-rule="evenodd" d="M50.1902 19.7866C49.3618 19.7866 48.6902 19.115 48.6902 18.2866L48.6902 13.0501C48.6902 12.2216 49.3618 11.5501 50.1902 11.5501C51.0186 11.5501 51.6902 12.2216 51.6902 13.0501L51.6902 18.2866C51.6902 19.115 51.0186 19.7866 50.1902 19.7866Z" fill="#273340"></path><path fill-rule="evenodd" clip-rule="evenodd" d="M50.1902 50.1301C49.3618 50.1301 48.6902 49.4586 48.6902 48.6301L48.6902 31.6782C48.6902 30.8498 49.3618 30.1782 50.1902 30.1782C51.0186 30.1782 51.6902 30.8498 51.6902 31.6782L51.6902 48.6301C51.6902 49.4586 51.0186 50.1301 50.1902 50.1301Z" fill="#273340"></path><path fill-rule="evenodd" clip-rule="evenodd" d="M48.1727 4.43925C48.8105 4.1746 49.4943 4.03833 50.1849 4.03833C50.8755 4.03833 51.5592 4.17462 52.1969 4.43925C52.8349 4.70396 53.4142 5.09199 53.9018 5.58082L52.8398 6.64014L53.9018 5.58082C54.6347 6.31552 55.1334 7.25095 55.3349 8.26906C55.5364 9.28707 55.4317 10.3419 55.034 11.3005C54.6363 12.2589 53.9634 13.0782 53.1003 13.6546C52.2371 14.2309 51.2225 14.5383 50.1849 14.5383C49.1473 14.5383 48.1326 14.231 47.2694 13.6546C46.4063 13.0782 45.7334 12.2589 45.3357 11.3005C44.9379 10.3419 44.8332 9.28707 45.0347 8.26906C45.2362 7.25095 45.735 6.31552 46.4679 5.58082C46.9555 5.09199 47.5348 4.70396 48.1727 4.43925ZM50.1849 7.03833C49.889 7.03833 49.5959 7.09672 49.3225 7.21016C49.0493 7.32355 48.801 7.48984 48.5919 7.69946C48.2777 8.0144 48.064 8.41532 47.9776 8.85154C47.8913 9.28788 47.9362 9.73991 48.1066 10.1507C48.2771 10.5616 48.5655 10.9127 48.9353 11.1596C49.3051 11.4065 49.7399 11.5383 50.1849 11.5383C50.6298 11.5383 51.0646 11.4065 51.4343 11.1596C51.8041 10.9127 52.0926 10.5616 52.2631 10.1507C52.4335 9.73991 52.4784 9.28788 52.392 8.85154C52.3057 8.41532 52.092 8.0144 51.7778 7.69946C51.5687 7.48984 51.3204 7.32355 51.0471 7.21016C50.7737 7.0967 50.4808 7.03833 50.1849 7.03833Z" fill="#273340"></path><path fill-rule="evenodd" clip-rule="evenodd" d="M30.1298 16.5887C31.1141 15.6056 32.4485 15.0532 33.8398 15.0532C35.2312 15.0532 36.5656 15.6056 37.5499 16.5887C38.2847 17.3226 38.7854 18.258 38.9885 19.2766C39.1916 20.2951 39.0881 21.3511 38.6909 22.3109C38.2937 23.2708 37.6206 24.0909 36.7573 24.668C35.8938 25.2451 34.8785 25.5532 33.8398 25.5532C32.8012 25.5532 31.7859 25.2451 30.9224 24.668C30.059 24.0909 29.3861 23.2707 28.9889 22.3109C28.5917 21.3512 28.4881 20.2952 28.6912 19.2766C28.8943 18.258 29.395 17.3226 30.1298 16.5887L32.2498 18.7113C31.9349 19.0259 31.7203 19.4268 31.6333 19.8633C31.5462 20.2998 31.5906 20.7524 31.7609 21.1637C31.9311 21.5749 32.2194 21.9264 32.5895 22.1738C32.9596 22.4212 33.3947 22.5532 33.8398 22.5532C34.285 22.5532 34.7201 22.4212 35.0902 22.1738C35.4604 21.9263 35.7488 21.5748 35.9189 21.1637C36.0891 20.7525 36.1335 20.2999 36.0464 19.8633C35.9594 19.4268 35.7448 19.0259 35.4299 18.7113C35.0079 18.2899 34.436 18.0532 33.8398 18.0532C33.2437 18.0532 32.6718 18.2899 32.2498 18.7113L30.1298 16.5887Z" fill="#273340"></path><path fill-rule="evenodd" clip-rule="evenodd" d="M33.8198 22.5801C34.6483 22.5801 35.3198 23.2517 35.3198 24.0801V31.2031L42.2744 33.6875C42.8714 33.9007 43.2698 34.4662 43.2698 35.1001V48.6301C43.2698 49.4585 42.5982 50.1301 41.7698 50.1301C40.9414 50.1301 40.2698 49.4585 40.2698 48.6301V36.1571L33.3152 33.6726C32.7183 33.4594 32.3198 32.894 32.3198 32.2601V24.0801C32.3198 23.2517 32.9914 22.5801 33.8198 22.5801Z" fill="#273340"></path><path fill-rule="evenodd" clip-rule="evenodd" d="M64.5825 15.4493C65.2203 15.1846 65.9041 15.0483 66.5947 15.0483C67.2853 15.0483 67.9691 15.1846 68.6068 15.4493C69.2448 15.714 69.8241 16.102 70.3117 16.5908L69.2497 17.6501L70.3117 16.5908C71.0446 17.3255 71.5433 18.261 71.7449 19.2791C71.9464 20.2972 71.8415 21.3521 71.4438 22.3105C71.0461 23.2689 70.3732 24.0882 69.51 24.6646C68.6469 25.241 67.6323 25.5483 66.5947 25.5483C65.557 25.5483 64.5425 25.241 63.6793 24.6646C62.8162 24.0882 62.1433 23.2689 61.7456 22.3105C61.3478 21.3519 61.2432 20.2971 61.4446 19.2791C61.6461 18.2611 62.1447 17.3256 62.8777 16.5908L65.0017 18.7095C64.6876 19.0243 64.4739 19.4252 64.3876 19.8616C64.3012 20.2979 64.3461 20.7499 64.5165 21.1607C64.687 21.5716 64.9755 21.9227 65.3453 22.1696C65.715 22.4166 66.1498 22.5483 66.5947 22.5483C67.0396 22.5483 67.4744 22.4165 67.8441 22.1696C68.2139 21.9227 68.5024 21.5716 68.6729 21.1607C68.8434 20.7498 68.8883 20.2977 68.8019 19.8616C68.7156 19.4253 68.5019 19.0244 68.1877 18.7095C67.9786 18.4998 67.7303 18.3336 67.457 18.2202C67.1837 18.1067 66.8906 18.0483 66.5947 18.0483C66.2988 18.0483 66.0057 18.1067 65.7323 18.2202C65.4591 18.3336 65.2107 18.4998 65.0017 18.7095L62.8777 16.5908C63.3653 16.102 63.9446 15.714 64.5825 15.4493Z" fill="#273340"></path><path fill-rule="evenodd" clip-rule="evenodd" d="M66.6299 22.5801C67.4584 22.5801 68.1299 23.2517 68.1299 24.0801V32.2601C68.1299 32.8942 67.7312 33.4598 67.134 33.6728L60.1699 36.1575V48.6301C60.1699 49.4585 59.4983 50.1301 58.6699 50.1301C57.8415 50.1301 57.1699 49.4585 57.1699 48.6301V35.1001C57.1699 34.466 57.5686 33.9004 58.1659 33.6873L65.1299 31.2026V24.0801C65.1299 23.2517 65.8015 22.5801 66.6299 22.5801Z" fill="#273340"></path><path d="M50.1843 27.5652C51.565 27.5652 52.6843 26.4459 52.6843 25.0652C52.6843 23.6845 51.565 22.5652 50.1843 22.5652C48.8036 22.5652 47.6843 23.6845 47.6843 25.0652C47.6843 26.4459 48.8036 27.5652 50.1843 27.5652Z" fill="#44B0E7"></path><path fill-rule="evenodd" clip-rule="evenodd" d="M50.1899 56.73C51.0184 56.73 51.6899 57.4016 51.6899 58.23V94.15C51.6899 94.9784 51.0184 95.65 50.1899 95.65C49.3615 95.65 48.6899 94.9784 48.6899 94.15V58.23C48.6899 57.4016 49.3615 56.73 50.1899 56.73Z" fill="#273340"></path></svg>