<svg xmlns="http://www.w3.org/2000/svg" width="288" height="288" viewBox="0 0 288 288" fill="none"><path d="M199.271 104.731C199.271 156.089 157.637 197.724 106.279 197.724C54.9204 197.724 13.2861 156.089 13.2861 104.731C13.2861 53.3725 54.9204 11.7383 106.279 11.7383C157.637 11.7383 199.271 53.3725 199.271 104.731Z" fill="#EFEFEF"></path><path fill-rule="evenodd" clip-rule="evenodd" d="M190.025 138.839C195.698 137.521 201.035 139.383 203.328 142.467C203.858 143.18 203.97 144.12 203.622 144.938C202.295 148.053 199.335 153.018 196.548 157.369C193.776 161.695 190.933 165.788 189.77 167.09L189.767 167.094C188.648 168.342 183.964 173.096 179.207 177.522C176.824 179.74 174.374 181.921 172.309 183.56C171.282 184.375 170.301 185.096 169.442 185.625C169.013 185.889 168.567 186.136 168.127 186.323C167.733 186.491 167.126 186.708 166.439 186.708H128.872C127.708 186.708 127.113 186.989 126.742 187.24C126.388 187.479 126.198 187.684 125.891 188.014C125.731 188.187 125.538 188.395 125.273 188.659C124.297 189.636 122.714 189.636 121.738 188.659C120.761 187.683 120.761 186.1 121.738 185.124C121.782 185.079 121.847 185.009 121.93 184.919C122.311 184.507 123.066 183.688 123.945 183.096C125.184 182.259 126.762 181.708 128.872 181.708H166.201C166.332 181.65 166.536 181.543 166.819 181.369C167.435 180.989 168.239 180.407 169.201 179.644C171.113 178.125 173.452 176.048 175.801 173.862C180.506 169.484 185.063 164.85 186.042 163.759C186.893 162.804 189.523 159.064 192.338 154.671C194.645 151.07 196.913 147.286 198.278 144.565C196.862 143.693 194.334 142.971 191.155 143.71L191.153 143.71C187.558 144.543 185.218 147.03 182.08 153.149C181.85 153.598 181.489 153.967 181.045 154.207L169.422 160.496C168.208 161.153 166.691 160.702 166.034 159.487C165.377 158.273 165.828 156.756 167.043 156.099L177.99 150.175C181.122 144.22 184.338 140.157 190.025 138.839ZM166.09 181.753C166.09 181.752 166.097 181.75 166.11 181.746C166.096 181.751 166.09 181.753 166.09 181.753Z" fill="#273340"></path><path fill-rule="evenodd" clip-rule="evenodd" d="M116.559 148.908C118.618 147.784 121.086 146.825 123.506 146.825H136.922C138.409 146.825 139.769 147.377 140.855 147.966C141.961 148.566 143.018 149.336 143.914 150.014C144.151 150.193 144.374 150.364 144.586 150.525C145.232 151.019 145.771 151.431 146.279 151.765C146.762 152.084 146.99 152.171 147.029 152.191H161.072C164.291 152.191 166.947 153.208 168.82 154.964C170.68 156.708 171.622 159.052 171.622 161.4C171.622 163.748 170.68 166.092 168.82 167.836C166.947 169.592 164.291 170.608 161.072 170.608H139.607C139.606 170.608 139.606 170.608 139.606 168.108C139.606 165.608 139.606 165.608 139.606 165.608H161.072C163.221 165.608 164.59 164.948 165.4 164.188C166.223 163.416 166.622 162.406 166.622 161.4C166.622 160.394 166.223 159.383 165.4 158.612C164.59 157.852 163.221 157.191 161.072 157.191H146.904C145.523 157.191 144.277 156.434 143.528 155.94C142.859 155.5 142.125 154.938 141.447 154.42C141.259 154.276 141.075 154.136 140.899 154.002C140.021 153.339 139.221 152.767 138.471 152.361C137.702 151.944 137.206 151.825 136.922 151.825H123.506C122.302 151.825 120.705 152.341 118.954 153.297C117.265 154.219 115.669 155.42 114.506 156.493L103.807 167.192C103.807 167.192 103.807 167.193 102.039 165.425C100.271 163.657 100.271 163.657 100.271 163.657L111.005 152.924C111.027 152.902 111.049 152.88 111.072 152.859C112.51 151.525 114.454 150.057 116.559 148.908ZM102.039 165.425L100.271 163.657C99.295 164.633 99.2949 166.216 100.271 167.193C101.248 168.169 102.831 168.169 103.807 167.192L102.039 165.425ZM139.606 168.108L139.606 165.608C138.225 165.608 137.106 166.727 137.106 168.108C137.106 169.489 138.226 170.608 139.607 170.608L139.606 168.108Z" fill="#273340"></path><path fill-rule="evenodd" clip-rule="evenodd" d="M85.0051 178.777C82.0762 175.848 82.0763 171.1 85.0052 168.171L91.3487 161.827C94.2776 158.898 99.0263 158.898 101.955 161.827L127.083 186.955C130.012 189.884 130.012 194.632 127.083 197.561L120.739 203.905C117.81 206.834 113.062 206.834 110.133 203.905L85.0051 178.777ZM88.5407 171.706C87.5643 172.683 87.5644 174.265 88.5406 175.242L113.668 200.369C114.645 201.346 116.227 201.346 117.204 200.369L123.547 194.026C124.524 193.05 124.524 191.467 123.547 190.49L98.4197 165.363C97.4434 164.386 95.8605 164.386 94.8842 165.363L88.5407 171.706Z" fill="#273340"></path><path fill-rule="evenodd" clip-rule="evenodd" d="M94.9046 171.707C95.8809 170.731 97.4638 170.731 98.4401 171.707L103.807 177.074C104.783 178.05 104.783 179.633 103.807 180.61C102.83 181.586 101.248 181.586 100.271 180.61L94.9046 175.243C93.9283 174.267 93.9283 172.684 94.9046 171.707Z" fill="#273340"></path><path fill-rule="evenodd" clip-rule="evenodd" d="M151.824 107.231C147.082 107.231 143.238 111.075 143.238 115.817V150.208C143.238 151.589 142.119 152.708 140.738 152.708C139.357 152.708 138.238 151.589 138.238 150.208V115.817C138.238 108.314 144.32 102.231 151.824 102.231C153.205 102.231 154.324 103.35 154.324 104.731C154.324 106.112 153.205 107.231 151.824 107.231Z" fill="#273340"></path><path fill-rule="evenodd" clip-rule="evenodd" d="M157.367 89.5C155.687 89.5 154.324 90.8624 154.324 92.543V152.474C154.324 153.855 153.205 154.974 151.824 154.974C150.444 154.974 149.324 153.855 149.324 152.474V92.543C149.324 88.101 152.925 84.5 157.367 84.5C161.809 84.5 165.41 88.101 165.41 92.543V155.202C165.41 156.583 164.291 157.702 162.91 157.702C161.53 157.702 160.41 156.583 160.41 155.202V92.543C160.41 90.8624 159.048 89.5 157.367 89.5Z" fill="#273340"></path><path fill-rule="evenodd" clip-rule="evenodd" d="M160.41 122.462C160.41 121.081 161.529 119.962 162.91 119.962C170.413 119.962 176.496 126.045 176.496 133.548V155.202C176.496 156.583 175.377 157.702 173.996 157.702C172.615 157.702 171.496 156.583 171.496 155.202V133.548C171.496 128.806 167.652 124.962 162.91 124.962C161.529 124.962 160.41 123.843 160.41 122.462Z" fill="#273340"></path><path fill-rule="evenodd" clip-rule="evenodd" d="M169.28 54.1078C109.475 38.0818 53.9824 82.9069 51.4977 140.032C51.4377 141.411 50.2708 142.481 48.8914 142.421C47.512 142.361 46.4424 141.194 46.5024 139.814C49.1197 79.6425 107.539 32.3865 170.574 49.2782C171.908 49.6356 172.699 51.0064 172.342 52.3401C171.984 53.6738 170.614 54.4652 169.28 54.1078Z" fill="#273340"></path><path fill-rule="evenodd" clip-rule="evenodd" d="M51.6394 166.918C52.9731 166.56 54.344 167.352 54.7015 168.685C71.2429 230.391 141.555 255.71 192.751 225.076C193.936 224.367 195.471 224.753 196.18 225.938C196.889 227.122 196.503 228.658 195.319 229.367C141.381 261.641 67.3051 235.012 49.872 169.98C49.5145 168.646 50.3058 167.275 51.6394 166.918Z" fill="#273340"></path><path fill-rule="evenodd" clip-rule="evenodd" d="M193.826 61.5398C194.551 60.3651 196.092 60.0011 197.267 60.7267C249.009 92.688 261.264 167.653 214.768 214.149C213.792 215.125 212.209 215.125 211.232 214.149C210.256 213.173 210.256 211.59 211.232 210.613C255.346 166.5 243.759 95.3224 194.639 64.9806C193.464 64.255 193.1 62.7145 193.826 61.5398Z" fill="#273340"></path><path fill-rule="evenodd" clip-rule="evenodd" d="M159.266 34.889C160.432 34.1494 161.977 34.495 162.717 35.6609L172.038 50.3536C172.405 50.9328 172.518 51.6376 172.351 52.3028C172.184 52.968 171.75 53.5352 171.153 53.8716L155.111 62.8982C153.907 63.5753 152.383 63.1487 151.706 61.9454C151.029 60.7421 151.455 59.2177 152.659 58.5407L166.404 50.8065L158.495 38.3393C157.755 37.1734 158.1 35.6287 159.266 34.889Z" fill="#273340"></path><path fill-rule="evenodd" clip-rule="evenodd" d="M213.556 191.485C214.937 191.522 216.026 192.671 215.989 194.051L215.569 209.836L230.323 209.44C231.703 209.403 232.852 210.492 232.889 211.872C232.926 213.253 231.837 214.401 230.457 214.438L213.066 214.905C212.38 214.923 211.717 214.658 211.232 214.173C210.746 213.688 210.482 213.025 210.5 212.339L210.991 193.918C211.027 192.537 212.176 191.448 213.556 191.485Z" fill="#273340"></path><path fill-rule="evenodd" clip-rule="evenodd" d="M51.6397 166.918C52.3029 166.74 53.0099 166.843 53.595 167.202L69.2934 176.842C70.47 177.565 70.8381 179.104 70.1156 180.281C69.3931 181.457 67.8536 181.825 66.677 181.103L53.2279 172.844L46.1943 185.829C45.5367 187.043 44.0194 187.494 42.8054 186.837C41.5913 186.179 41.1402 184.662 41.7979 183.448L50.0886 168.142C50.4156 167.538 50.9765 167.096 51.6397 166.918Z" fill="#273340"></path><path d="M188.161 57.6006C188.161 60.362 185.922 62.6006 183.161 62.6006C180.399 62.6006 178.161 60.362 178.161 57.6006C178.161 54.8392 180.399 52.6006 183.161 52.6006C185.922 52.6006 188.161 54.8392 188.161 57.6006Z" fill="#44B0E7"></path><path d="M54.7764 155.104C54.7764 157.866 52.5378 160.104 49.7764 160.104C47.0149 160.104 44.7764 157.866 44.7764 155.104C44.7764 152.343 47.0149 150.104 49.7764 150.104C52.5378 150.104 54.7764 152.343 54.7764 155.104Z" fill="#44B0E7"></path><path d="M209.272 220.145C209.272 222.907 207.033 225.145 204.272 225.145C201.51 225.145 199.272 222.907 199.272 220.145C199.272 217.384 201.51 215.145 204.272 215.145C207.033 215.145 209.272 217.384 209.272 220.145Z" fill="#44B0E7"></path></svg>