<svg xmlns="http://www.w3.org/2000/svg" width="288" height="288" viewBox="0 0 288 288" fill="none"><path d="M273.107 176.376C273.107 227.734 231.473 269.369 180.115 269.369C128.756 269.369 87.1218 227.734 87.1218 176.376C87.1218 125.018 128.756 83.3833 180.115 83.3833C231.473 83.3833 273.107 125.018 273.107 176.376Z" fill="#EFEFEF"></path><path fill-rule="evenodd" clip-rule="evenodd" d="M144.861 95.1954C117.837 95.1954 95.9307 117.102 95.9307 144.125C95.9307 171.149 117.837 193.055 144.861 193.055C171.884 193.055 193.79 171.149 193.79 144.125C193.79 117.102 171.884 95.1954 144.861 95.1954ZM90.9307 144.125C90.9307 114.341 115.076 90.1954 144.861 90.1954C174.645 90.1954 198.79 114.341 198.79 144.125C198.79 173.91 174.645 198.055 144.861 198.055C115.076 198.055 90.9307 173.91 90.9307 144.125Z" fill="#273340"></path><path fill-rule="evenodd" clip-rule="evenodd" d="M127.345 108.95C122.534 117.825 119.482 130.257 119.482 144.125C119.482 157.994 122.534 170.425 127.345 179.3C132.209 188.273 138.513 193.055 144.86 193.055C151.206 193.055 157.51 188.273 162.374 179.3C167.185 170.425 170.237 157.994 170.237 144.125C170.237 130.257 167.185 117.825 162.374 108.95C157.51 99.9773 151.206 95.1953 144.86 95.1953C138.513 95.1953 132.209 99.9773 127.345 108.95ZM122.949 106.567C128.175 96.9263 135.81 90.1953 144.86 90.1953C153.91 90.1953 161.544 96.9263 166.77 106.567C172.049 116.307 175.237 129.59 175.237 144.125C175.237 158.661 172.049 171.944 166.77 181.683C161.544 191.324 153.91 198.055 144.86 198.055C135.81 198.055 128.175 191.324 122.949 181.683C117.67 171.944 114.482 158.661 114.482 144.125C114.482 129.59 117.67 116.307 122.949 106.567Z" fill="#273340"></path><path fill-rule="evenodd" clip-rule="evenodd" d="M144.86 168.324C129.624 168.324 116.343 173.197 108.346 180.439C107.322 181.366 105.741 181.288 104.815 180.264C103.888 179.241 103.966 177.66 104.99 176.733C114.104 168.48 128.677 163.324 144.86 163.324C161.048 163.324 175.592 168.506 184.725 176.728C185.751 177.652 185.834 179.233 184.91 180.259C183.986 181.285 182.406 181.368 181.379 180.444C173.353 173.218 160.091 168.324 144.86 168.324Z" fill="#273340"></path><path fill-rule="evenodd" clip-rule="evenodd" d="M184.91 107.991C185.834 109.017 185.751 110.598 184.725 111.522C175.592 119.744 161.048 124.926 144.86 124.926C128.677 124.926 114.104 119.77 104.99 111.517C103.966 110.59 103.888 109.009 104.815 107.986C105.741 106.962 107.322 106.884 108.346 107.811C116.343 115.053 129.624 119.926 144.86 119.926C160.091 119.926 173.353 115.032 181.379 107.806C182.406 106.882 183.986 106.965 184.91 107.991Z" fill="#273340"></path><path fill-rule="evenodd" clip-rule="evenodd" d="M90.906 144.125C90.906 142.744 92.0253 141.625 93.406 141.625H196.29C197.67 141.625 198.79 142.744 198.79 144.125C198.79 145.505 197.67 146.625 196.29 146.625H93.406C92.0253 146.625 90.906 145.505 90.906 144.125Z" fill="#273340"></path><path fill-rule="evenodd" clip-rule="evenodd" d="M144.86 90.1953C146.24 90.1953 147.36 91.3146 147.36 92.6953V195.555C147.36 196.936 146.24 198.055 144.86 198.055C143.479 198.055 142.36 196.936 142.36 195.555V92.6953C142.36 91.3146 143.479 90.1953 144.86 90.1953Z" fill="#273340"></path><path fill-rule="evenodd" clip-rule="evenodd" d="M168.312 57.3937C110.417 41.8795 56.6948 85.2731 54.2894 140.574C54.2294 141.954 53.0626 143.023 51.6832 142.963C50.3037 142.903 49.2342 141.736 49.2942 140.357C51.8321 82.0087 108.48 36.1842 169.606 52.5641C170.94 52.9215 171.731 54.2924 171.374 55.626C171.016 56.9597 169.645 57.7511 168.312 57.3937Z" fill="#273340"></path><path fill-rule="evenodd" clip-rule="evenodd" d="M54.3286 166.546C55.6623 166.189 57.0332 166.98 57.3907 168.314C73.5998 228.78 143.143 253.153 192.84 221.794C194.008 221.057 195.552 221.407 196.288 222.574C197.025 223.742 196.676 225.286 195.508 226.023C143.059 259.118 69.6722 233.439 52.5612 169.608C52.2037 168.275 52.995 166.904 54.3286 166.546Z" fill="#273340"></path><path fill-rule="evenodd" clip-rule="evenodd" d="M192.048 64.4785C192.774 63.3038 194.314 62.9398 195.489 63.6654C245.663 94.6581 257.548 167.351 212.46 212.438C211.484 213.415 209.901 213.415 208.925 212.438C207.949 211.462 207.949 209.879 208.925 208.903C251.63 166.198 240.414 97.2925 192.861 67.9193C191.687 67.1937 191.323 65.6532 192.048 64.4785Z" fill="#273340"></path><path fill-rule="evenodd" clip-rule="evenodd" d="M158.587 38.6317C159.753 37.8921 161.298 38.2376 162.038 39.4035L171.069 53.6394C171.436 54.2186 171.55 54.9234 171.382 55.5886C171.215 56.2538 170.782 56.821 170.184 57.1574L154.641 65.9034C153.437 66.5804 151.913 66.1539 151.236 64.9506C150.559 63.7473 150.985 62.2229 152.189 61.5458L165.435 54.0924L157.816 42.082C157.076 40.9161 157.422 39.3713 158.587 38.6317Z" fill="#273340"></path><path fill-rule="evenodd" clip-rule="evenodd" d="M211.234 190.347C212.614 190.383 213.703 191.532 213.666 192.912L213.261 208.124L227.475 207.744C228.855 207.707 230.004 208.795 230.041 210.176C230.078 211.556 228.989 212.705 227.609 212.742L210.759 213.193C210.073 213.212 209.41 212.947 208.924 212.462C208.439 211.977 208.175 211.314 208.193 210.628L208.668 192.779C208.705 191.399 209.854 190.31 211.234 190.347Z" fill="#273340"></path><path fill-rule="evenodd" clip-rule="evenodd" d="M54.3292 166.546C54.9923 166.369 55.6994 166.471 56.2845 166.831L71.4948 176.171C72.6714 176.893 73.0395 178.433 72.317 179.609C71.5945 180.786 70.055 181.154 68.8784 180.432L55.9174 172.473L49.1416 184.982C48.484 186.196 46.9667 186.647 45.7526 185.989C44.5386 185.332 44.0875 183.814 44.7451 182.6L52.7781 167.77C53.1051 167.167 53.666 166.724 54.3292 166.546Z" fill="#273340"></path><path d="M38.2774 122.082L38.2774 144.613C38.2774 144.636 38.29 144.659 38.3132 144.678L51.0582 155.721C51.5909 156.183 51.772 156.902 51.5277 157.557C51.2793 158.216 50.6623 158.641 49.9528 158.641L38.4332 158.641C37.5888 158.641 4.90193 158.625 4.57346 158.625C2.60054 158.627 0.996092 157.057 0.996092 155.132L0.996094 122.082C0.996094 120.154 2.60054 118.587 4.57136 118.587L34.7 118.587C36.6729 118.587 38.2774 120.154 38.2774 122.082ZM4.57136 121.357C4.1334 121.357 3.77545 121.682 3.77545 122.082L3.77545 155.132C3.77545 155.532 4.13339 155.858 4.57135 155.858C4.90193 155.858 37.5888 155.874 38.4311 155.874L46.9944 155.874L36.4876 146.77C35.8581 146.224 35.498 145.44 35.498 144.615L35.498 122.082C35.498 121.682 35.1401 121.357 34.7021 121.357L4.57136 121.357Z" fill="#44B0E7"></path><path d="M11.6868 134.457H23.5333C23.0927 137.005 21.4963 139.35 19.5852 141.338C18.4083 139.725 17.7789 138.437 17.76 138.397C17.4307 137.706 16.6041 137.413 15.9139 137.744C15.2238 138.074 14.9322 138.904 15.2615 139.597C15.3328 139.746 16.1007 141.33 17.5377 143.252C14.3678 145.943 11.1351 147.615 11.0596 147.653C10.3778 148 10.105 148.836 10.4491 149.52C10.7952 150.207 11.6281 150.478 12.3099 150.133C12.591 149.99 15.9517 148.257 19.3229 145.383C21.2529 147.429 23.8605 149.426 27.1143 150.243C27.8548 150.43 28.6079 149.977 28.7925 149.232C28.9772 148.486 28.5261 147.733 27.7856 147.547C25.1591 146.888 22.9962 145.221 21.3599 143.488C23.7913 141.003 25.8787 137.931 26.3297 134.459H29.059C29.8247 134.459 30.4435 133.838 30.4435 133.069C30.4435 132.303 29.8247 131.68 29.059 131.68H21.7606V128.062C21.7606 127.294 21.1417 126.673 20.376 126.673C19.6103 126.673 18.9915 127.294 18.9915 128.062V131.678H11.6868C10.9211 131.678 10.3022 132.301 10.3022 133.067C10.3022 133.836 10.9232 134.457 11.6868 134.457Z" fill="#44B0E7"></path><path d="M180.115 57.9409C180.115 58.6474 180.55 59.2688 181.221 59.5241C181.896 59.7795 182.643 59.6007 183.123 59.0772L194.811 46.3409C194.839 46.3089 194.882 46.2919 194.926 46.2919H218.773C220.793 46.2919 222.436 44.681 222.436 42.7019V12.59C222.436 10.6109 220.793 9 218.773 9H183.794C181.775 9 180.132 10.6109 180.132 12.5879L180.115 57.9409ZM182.989 12.59C182.989 12.1602 183.35 11.809 183.794 11.809H218.773C219.217 11.809 219.579 12.158 219.579 12.59V42.7019C219.579 43.1318 219.217 43.4829 218.773 43.4829H194.926C194.075 43.4829 193.259 43.8383 192.69 44.4597L182.972 55.051L182.989 12.59Z" fill="#44B0E7"></path><path d="M193.687 38.8841L197.287 30.7102H205.261L208.86 38.8841C209.172 39.5927 210.012 39.9247 210.739 39.614C211.464 39.3054 211.795 38.4797 211.481 37.7668L207.516 28.7631C207.514 28.7588 207.512 28.7546 207.51 28.7503L203.129 18.8059C202.808 18.0781 202.079 17.6057 201.272 17.6057C200.464 17.6057 199.735 18.076 199.415 18.8059L195.038 28.7503C195.036 28.7546 195.034 28.7588 195.032 28.7631L191.066 37.769C190.753 38.4819 191.086 39.3075 191.809 39.6161C192.534 39.9225 193.376 39.597 193.687 38.8841ZM201.276 21.6575L204.027 27.9012H198.525L201.276 21.6575Z" fill="#44B0E7"></path></svg>