<svg xmlns="http://www.w3.org/2000/svg" width="288" height="288" viewBox="0 0 288 288" fill="none"><path d="M273.111 176.376C273.111 227.734 231.477 269.369 180.118 269.369C128.76 269.369 87.1257 227.734 87.1257 176.376C87.1257 125.018 128.76 83.3833 180.118 83.3833C231.477 83.3833 273.111 125.018 273.111 176.376Z" fill="#EFEFEF"></path><path fill-rule="evenodd" clip-rule="evenodd" d="M144.864 95.6956C118.117 95.6956 96.4345 117.378 96.4345 144.125C96.4345 170.873 118.117 192.555 144.864 192.555C171.611 192.555 193.294 170.873 193.294 144.125C193.294 117.378 171.611 95.6956 144.864 95.6956ZM90.4345 144.125C90.4345 114.065 114.804 89.6956 144.864 89.6956C174.925 89.6956 199.294 114.065 199.294 144.125C199.294 174.186 174.925 198.555 144.864 198.555C114.804 198.555 90.4345 174.186 90.4345 144.125Z" fill="#273340"></path><path fill-rule="evenodd" clip-rule="evenodd" d="M127.789 109.188C123.025 117.977 119.986 130.323 119.986 144.125C119.986 157.927 123.025 170.274 127.789 179.062C132.616 187.968 138.788 192.555 144.864 192.555C150.94 192.555 157.111 187.968 161.939 179.062C166.702 170.274 169.741 157.927 169.741 144.125C169.741 130.323 166.702 117.977 161.939 109.188C157.111 100.282 150.94 95.6953 144.864 95.6953C138.788 95.6953 132.616 100.282 127.789 109.188ZM122.514 106.329C127.776 96.6213 135.543 89.6953 144.864 89.6953C154.184 89.6953 161.951 96.6213 167.214 106.329C172.54 116.155 175.741 129.523 175.741 144.125C175.741 158.727 172.54 172.096 167.214 181.921C161.951 191.629 154.184 198.555 144.864 198.555C135.543 198.555 127.776 191.629 122.514 181.921C117.188 172.096 113.986 158.727 113.986 144.125C113.986 129.523 117.188 116.155 122.514 106.329Z" fill="#273340"></path><path fill-rule="evenodd" clip-rule="evenodd" d="M144.864 168.824C129.722 168.824 116.571 173.669 108.685 180.81C107.457 181.922 105.56 181.828 104.448 180.6C103.336 179.372 103.43 177.475 104.658 176.362C113.884 168.008 128.587 162.824 144.864 162.824C161.147 162.824 175.82 168.035 185.063 176.357C186.295 177.465 186.394 179.362 185.286 180.593C184.177 181.825 182.28 181.924 181.049 180.816C173.133 173.689 159.999 168.824 144.864 168.824Z" fill="#273340"></path><path fill-rule="evenodd" clip-rule="evenodd" d="M185.286 107.657C186.394 108.888 186.295 110.785 185.063 111.894C175.82 120.215 161.147 125.426 144.864 125.426C128.587 125.426 113.884 120.242 104.658 111.888C103.43 110.776 103.336 108.879 104.448 107.65C105.56 106.422 107.457 106.328 108.685 107.44C116.571 114.581 129.722 119.426 144.864 119.426C159.999 119.426 173.133 114.561 181.049 107.435C182.28 106.326 184.177 106.425 185.286 107.657Z" fill="#273340"></path><path fill-rule="evenodd" clip-rule="evenodd" d="M90.4099 144.125C90.4099 142.468 91.7531 141.125 93.4099 141.125H196.293C197.95 141.125 199.293 142.468 199.293 144.125C199.293 145.782 197.95 147.125 196.293 147.125H93.4099C91.7531 147.125 90.4099 145.782 90.4099 144.125Z" fill="#273340"></path><path fill-rule="evenodd" clip-rule="evenodd" d="M144.864 89.6953C146.52 89.6953 147.864 91.0385 147.864 92.6953V195.555C147.864 197.212 146.52 198.555 144.864 198.555C143.207 198.555 141.864 197.212 141.864 195.555V92.6953C141.864 91.0385 143.207 89.6953 144.864 89.6953Z" fill="#273340"></path><path fill-rule="evenodd" clip-rule="evenodd" d="M168.186 57.8764C110.614 42.4487 57.185 85.5992 54.7928 140.596C54.7208 142.251 53.3206 143.535 51.6653 143.463C50.01 143.391 48.7265 141.99 48.7985 140.335C51.3497 81.682 108.29 35.6144 169.739 52.0809C171.34 52.5097 172.289 54.1548 171.86 55.7551C171.432 57.3555 169.786 58.3053 168.186 57.8764Z" fill="#273340"></path><path fill-rule="evenodd" clip-rule="evenodd" d="M54.2032 166.063C55.8035 165.634 57.4486 166.584 57.8776 168.184C73.9965 228.314 143.155 252.556 192.577 221.371C193.978 220.487 195.831 220.906 196.715 222.307C197.599 223.709 197.18 225.561 195.779 226.445C143.054 259.714 69.2834 233.905 52.0822 169.738C51.6532 168.137 52.6028 166.492 54.2032 166.063Z" fill="#273340"></path><path fill-rule="evenodd" clip-rule="evenodd" d="M191.627 64.2156C192.497 62.806 194.346 62.3691 195.756 63.2398C246.192 94.3945 258.143 167.466 212.818 212.792C211.646 213.963 209.747 213.963 208.575 212.792C207.404 211.62 207.404 209.721 208.575 208.549C251.042 166.083 239.893 97.5557 192.602 68.3445C191.193 67.4738 190.756 65.6252 191.627 64.2156Z" fill="#273340"></path><path fill-rule="evenodd" clip-rule="evenodd" d="M158.323 38.2093C159.723 37.3218 161.576 37.7364 162.464 39.1355L171.495 53.3714C171.936 54.0665 172.072 54.9122 171.871 55.7104C171.67 56.5087 171.15 57.1893 170.433 57.593L154.89 66.3389C153.446 67.1514 151.617 66.6395 150.804 65.1956C149.992 63.7516 150.503 61.9224 151.947 61.1099L164.734 53.9149L157.397 42.3496C156.51 40.9506 156.924 39.0969 158.323 38.2093Z" fill="#273340"></path><path fill-rule="evenodd" clip-rule="evenodd" d="M211.251 189.847C212.907 189.891 214.214 191.269 214.17 192.926L213.779 207.61L227.466 207.244C229.122 207.199 230.5 208.506 230.545 210.162C230.589 211.818 229.283 213.197 227.626 213.241L210.776 213.693C209.953 213.715 209.157 213.398 208.575 212.816C207.992 212.233 207.675 211.437 207.697 210.614L208.172 192.766C208.216 191.11 209.595 189.803 211.251 189.847Z" fill="#273340"></path><path fill-rule="evenodd" clip-rule="evenodd" d="M54.2036 166.063C54.9995 165.85 55.848 165.973 56.5501 166.404L71.7604 175.745C73.1723 176.612 73.614 178.459 72.747 179.871C71.88 181.283 70.0326 181.725 68.6207 180.858L56.1095 173.175L49.5851 185.22C48.796 186.677 46.9753 187.218 45.5184 186.429C44.0616 185.64 43.5203 183.819 44.3094 182.362L52.3423 167.532C52.7347 166.808 53.4078 166.276 54.2036 166.063Z" fill="#273340"></path><path d="M38.2813 122.082L38.2813 144.613C38.2813 144.636 38.2939 144.659 38.3171 144.678L51.0621 155.721C51.5948 156.183 51.7759 156.902 51.5316 157.557C51.2832 158.216 50.6662 158.641 49.9567 158.641L38.4371 158.641C37.5927 158.641 4.90583 158.625 4.57737 158.625C2.60444 158.627 0.999998 157.057 0.999998 155.132L1 122.082C1 120.154 2.60445 118.587 4.57526 118.587L34.7039 118.587C36.6768 118.587 38.2813 120.154 38.2813 122.082ZM4.57526 121.357C4.1373 121.357 3.77936 121.682 3.77936 122.082L3.77935 155.132C3.77935 155.532 4.1373 155.858 4.57526 155.858C4.90583 155.858 37.5927 155.874 38.435 155.874L46.9983 155.874L36.4915 146.77C35.862 146.224 35.5019 145.44 35.5019 144.615L35.5019 122.082C35.5019 121.682 35.144 121.357 34.706 121.357L4.57526 121.357Z" fill="#44B0E7"></path><path d="M11.6907 134.457H23.5372C23.0967 137.005 21.5002 139.35 19.5891 141.338C18.4122 139.725 17.7829 138.436 17.764 138.396C17.4346 137.706 16.6081 137.413 15.9179 137.744C15.2277 138.074 14.9361 138.904 15.2655 139.597C15.3368 139.746 16.1046 141.329 17.5416 143.252C14.3718 145.943 11.139 147.615 11.0635 147.653C10.3817 148 10.109 148.836 10.453 149.52C10.7992 150.207 11.632 150.478 12.3138 150.133C12.5949 149.99 15.9556 148.257 19.3269 145.383C21.2569 147.429 23.8645 149.425 27.1182 150.242C27.8588 150.43 28.6119 149.977 28.7965 149.232C28.9811 148.486 28.5301 147.733 27.7895 147.547C25.163 146.888 23.0002 145.221 21.3639 143.488C23.7952 141.003 25.8826 137.931 26.3336 134.459H29.0629C29.8286 134.459 30.4475 133.838 30.4475 133.069C30.4475 132.303 29.8286 131.68 29.0629 131.68H21.7645V128.062C21.7645 127.294 21.1457 126.673 20.38 126.673C19.6143 126.673 18.9954 127.294 18.9954 128.062V131.678H11.6907C10.925 131.678 10.3062 132.301 10.3062 133.067C10.3062 133.836 10.9271 134.457 11.6907 134.457Z" fill="#44B0E7"></path><path d="M180.118 57.9409C180.118 58.6474 180.553 59.2688 181.224 59.5241C181.9 59.7795 182.646 59.6007 183.127 59.0772L194.815 46.3409C194.843 46.3089 194.886 46.2919 194.93 46.2919H218.777C220.797 46.2919 222.44 44.681 222.44 42.7019V12.59C222.44 10.6109 220.797 9 218.777 9H183.798C181.779 9 180.136 10.6109 180.136 12.5879L180.118 57.9409ZM182.993 12.59C182.993 12.1602 183.354 11.809 183.798 11.809H218.777C219.221 11.809 219.583 12.158 219.583 12.59V42.7019C219.583 43.1318 219.221 43.4829 218.777 43.4829H194.93C194.079 43.4829 193.263 43.8383 192.694 44.4597L182.975 55.051L182.993 12.59Z" fill="#44B0E7"></path><path d="M193.691 38.8841L197.291 30.7102H205.265L208.864 38.8841C209.176 39.5927 210.016 39.9247 210.743 39.614C211.468 39.3054 211.799 38.4797 211.485 37.7668L207.52 28.7631C207.518 28.7588 207.516 28.7546 207.513 28.7503L203.133 18.8059C202.812 18.0781 202.083 17.6057 201.276 17.6057C200.468 17.6057 199.739 18.076 199.418 18.8059L195.042 28.7503C195.04 28.7546 195.038 28.7588 195.036 28.7631L191.07 37.769C190.756 38.4819 191.09 39.3075 191.813 39.6161C192.538 39.9225 193.38 39.597 193.691 38.8841ZM201.28 21.6575L204.031 27.9012H198.529L201.28 21.6575Z" fill="#44B0E7"></path></svg>