<svg xmlns="http://www.w3.org/2000/svg" width="288" height="288" viewBox="0 0 288 288" fill="none"><path d="M277.626 101.4C277.626 152.758 235.992 194.392 184.634 194.392C133.275 194.392 91.6411 152.758 91.6411 101.4C91.6411 50.0412 133.275 8.40698 184.634 8.40698C235.992 8.40698 277.626 50.0412 277.626 101.4Z" fill="#EFEFEF"></path><path fill-rule="evenodd" clip-rule="evenodd" d="M170.003 55.9588C110.821 40.0998 55.9058 84.4579 53.4469 140.988C53.3869 142.367 52.22 143.437 50.8406 143.377C49.4612 143.317 48.3916 142.15 48.4516 140.771C51.043 81.1936 108.884 34.4045 171.297 51.1292C172.631 51.4866 173.422 52.8575 173.065 54.1911C172.707 55.5248 171.336 56.3162 170.003 55.9588Z" fill="#273340"></path><path fill-rule="evenodd" clip-rule="evenodd" d="M109.956 108.462C110.95 107.504 112.533 107.532 113.491 108.526L126.991 122.526C127.949 123.52 127.921 125.101 126.928 126.06L112.428 140.06C111.435 141.019 109.852 140.991 108.893 139.998C107.934 139.005 107.962 137.422 108.955 136.463L119.003 126.762H97.1914C95.8107 126.762 94.6914 125.642 94.6914 124.262C94.6914 122.881 95.8107 121.762 97.1914 121.762H119.308L109.892 111.997C108.933 111.003 108.962 109.42 109.956 108.462ZM134.191 150.262C134.191 148.881 135.311 147.762 136.691 147.762H165.191C166.572 147.762 167.691 148.881 167.691 150.262C167.691 151.642 166.572 152.762 165.191 152.762H136.691C135.311 152.762 134.191 151.642 134.191 150.262ZM135.191 167.762C135.191 166.381 136.311 165.262 137.691 165.262H179.691C181.072 165.262 182.191 166.381 182.191 167.762C182.191 169.142 181.072 170.262 179.691 170.262H137.691C136.311 170.262 135.191 169.142 135.191 167.762ZM134.191 185.262C134.191 183.881 135.311 182.762 136.691 182.762H164.691C166.072 182.762 167.191 183.881 167.191 185.262C167.191 186.642 166.072 187.762 164.691 187.762H136.691C135.311 187.762 134.191 186.642 134.191 185.262Z" fill="#273340"></path><path fill-rule="evenodd" clip-rule="evenodd" d="M133.691 120.262C133.691 116.119 137.049 112.762 141.191 112.762H174.191C178.334 112.762 181.691 116.119 181.691 120.262V128.262C181.691 132.404 178.334 135.762 174.191 135.762H141.191C137.049 135.762 133.691 132.404 133.691 128.262V120.262ZM141.191 117.762C139.811 117.762 138.691 118.881 138.691 120.262V128.262C138.691 129.642 139.811 130.762 141.191 130.762H174.191C175.572 130.762 176.691 129.642 176.691 128.262V120.262C176.691 118.881 175.572 117.762 174.191 117.762H141.191Z" fill="#44B0E7"></path><path fill-rule="evenodd" clip-rule="evenodd" d="M53.5552 167.576C54.8888 167.218 56.2598 168.01 56.6173 169.343C73.1866 231.154 144.275 256.067 195.077 224.012C196.244 223.275 197.788 223.624 198.525 224.792C199.262 225.96 198.913 227.504 197.745 228.24C144.191 262.033 69.259 235.813 51.7878 170.638C51.4303 169.304 52.2216 167.933 53.5552 167.576Z" fill="#273340"></path><path fill-rule="evenodd" clip-rule="evenodd" d="M194.284 63.2776C195.01 62.1029 196.55 61.7389 197.725 62.4645C248.956 94.1099 261.09 168.334 215.054 214.37C214.077 215.347 212.494 215.347 211.518 214.37C210.542 213.394 210.542 211.811 211.518 210.835C255.172 167.181 243.706 96.7442 195.097 66.7184C193.923 65.9927 193.559 64.4523 194.284 63.2776Z" fill="#273340"></path><path fill-rule="evenodd" clip-rule="evenodd" d="M160.084 36.889C161.25 36.1494 162.795 36.495 163.534 37.6609L172.761 52.2046C173.128 52.7838 173.241 53.4886 173.074 54.1538C172.907 54.819 172.473 55.3862 171.876 55.7226L155.996 64.6576C154.793 65.3347 153.269 64.9081 152.592 63.7048C151.915 62.5015 152.341 60.9772 153.544 60.3001L167.127 52.6575L159.312 40.3393C158.573 39.1734 158.918 37.6287 160.084 36.889Z" fill="#273340"></path><path fill-rule="evenodd" clip-rule="evenodd" d="M213.838 191.893C215.218 191.93 216.307 193.079 216.27 194.459L215.855 210.057L230.433 209.666C231.813 209.629 232.962 210.718 232.999 212.098C233.036 213.479 231.947 214.627 230.567 214.664L213.352 215.126C212.666 215.144 212.003 214.88 211.518 214.395C211.033 213.909 210.768 213.246 210.786 212.56L211.272 194.326C211.309 192.946 212.457 191.856 213.838 191.893Z" fill="#273340"></path><path fill-rule="evenodd" clip-rule="evenodd" d="M53.5556 167.576C54.2188 167.398 54.9259 167.501 55.5109 167.86L71.0502 177.402C72.2268 178.125 72.5949 179.664 71.8724 180.841C71.1499 182.018 69.6104 182.386 68.4338 181.663L55.1438 173.502L48.1943 186.332C47.5367 187.546 46.0194 187.997 44.8054 187.34C43.5913 186.682 43.1402 185.165 43.7979 183.951L52.0045 168.8C52.3315 168.196 52.8924 167.754 53.5556 167.576Z" fill="#273340"></path></svg>