<svg xmlns="http://www.w3.org/2000/svg" width="14" height="11" viewBox="0 0 14 11" fill="none"><path d="M13.2914 2.02368C12.8308 2.22819 12.336 2.36581 11.8167 2.42788C12.3471 2.11029 12.7538 1.60744 12.9453 1.00786C12.4496 1.30187 11.9 1.51553 11.3148 1.63101C10.8465 1.13201 10.1795 0.82019 9.44118 0.82019C8.02335 0.82019 6.87406 1.96978 6.87406 3.38692C6.87406 3.58806 6.89716 3.78439 6.94048 3.97158C4.80699 3.86475 2.91558 2.84268 1.64887 1.28936C1.42845 1.66855 1.30187 2.10933 1.30187 2.58043C1.30187 3.47065 1.75475 4.25645 2.44345 4.71648C2.02282 4.70301 1.62673 4.58752 1.28069 4.39552C1.28069 4.40659 1.28069 4.41669 1.28069 4.42776C1.28069 5.67166 2.16528 6.70913 3.34007 6.94444C3.12494 7.00315 2.89778 7.03443 2.6634 7.03443C2.49832 7.03443 2.33709 7.01806 2.18068 6.98871C2.50746 8.00838 3.45557 8.75087 4.57887 8.77156C3.70054 9.46016 2.59361 9.87063 1.39043 9.87063C1.18348 9.87063 0.978936 9.8586 0.777763 9.83454C1.91405 10.5626 3.26306 10.9875 4.71314 10.9875C9.4354 10.9875 12.017 7.07629 12.017 3.6843C12.017 3.57314 12.0146 3.46247 12.0097 3.35227C12.5117 2.98993 12.9473 2.53808 13.2914 2.02368Z" fill="#273340"></path></svg>